<svg id="svg" version="1.1" xmlns="http://www.w3.org/2000/svg" xmlns:xlink="http://www.w3.org/1999/xlink" width="400" height="400" viewBox="0, 0, 400,400"><g id="svgg"><path id="path0" d="M169.667 42.876 C 163.969 49.778,160.800 58.491,160.800 67.259 C 160.800 73.075,161.715 76.817,164.683 83.126 C 166.146 86.238,165.773 86.120,159.713 81.553 C 149.936 74.185,143.642 70.166,135.600 66.157 C 131.769 64.247,130.099 63.481,126.000 61.752 C 125.230 61.427,124.287 60.990,123.905 60.781 C 123.523 60.571,123.011 60.400,122.766 60.400 C 122.521 60.400,121.754 60.144,121.060 59.831 C 120.367 59.518,118.540 58.870,117.000 58.391 C 115.460 57.911,113.840 57.373,113.400 57.194 C 110.990 56.213,99.377 53.605,96.832 53.471 C 94.486 53.349,88.588 66.023,84.021 81.000 C 78.747 98.294,78.784 127.194,84.093 137.758 C 85.722 141.002,89.354 144.093,92.152 144.617 C 94.730 145.101,94.389 145.803,91.000 146.986 C 89.900 147.370,88.640 147.839,88.200 148.028 C 87.315 148.409,84.372 149.026,80.400 149.664 C 77.217 150.175,66.935 149.875,64.200 149.191 C 59.296 147.965,56.462 146.986,53.647 145.547 C 50.042 143.703,49.910 143.686,50.247 145.100 C 50.850 147.633,59.419 163.991,60.776 165.200 C 61.180 165.560,62.800 167.962,62.800 168.201 C 62.800 168.329,62.983 168.651,63.208 168.917 C 63.432 169.183,65.097 171.397,66.908 173.838 C 77.179 187.682,98.300 206.850,109.400 212.400 C 109.620 212.510,110.520 213.063,111.400 213.629 C 112.280 214.195,113.270 214.783,113.600 214.934 C 113.930 215.086,115.010 215.674,116.000 216.241 C 119.725 218.375,125.004 220.941,130.000 223.048 C 130.770 223.373,131.676 223.787,132.013 223.969 C 132.350 224.150,133.203 224.425,133.909 224.580 C 134.614 224.735,135.294 225.028,135.419 225.231 C 135.545 225.434,135.924 225.600,136.263 225.600 C 136.602 225.600,137.446 225.854,138.140 226.165 C 138.833 226.476,140.750 227.119,142.400 227.595 C 144.050 228.070,145.850 228.622,146.400 228.820 C 150.873 230.434,165.491 233.181,174.000 234.007 C 176.090 234.210,179.510 234.563,181.600 234.792 C 186.456 235.323,206.565 235.329,211.800 234.801 C 214.000 234.579,217.690 234.220,220.000 234.003 C 229.592 233.103,242.155 230.702,250.400 228.192 C 255.119 226.756,255.837 226.522,256.926 226.069 C 257.545 225.811,258.300 225.600,258.602 225.600 C 258.905 225.600,259.255 225.434,259.381 225.231 C 259.506 225.028,260.186 224.735,260.891 224.580 C 261.597 224.425,262.450 224.147,262.787 223.963 C 263.124 223.779,264.300 223.249,265.400 222.785 C 268.964 221.283,276.312 217.538,278.418 216.152 C 279.546 215.408,280.558 214.800,280.665 214.800 C 280.773 214.800,282.962 213.224,285.531 211.297 C 293.543 205.285,299.988 204.257,304.321 208.300 C 304.658 208.615,306.071 208.802,308.129 208.805 C 324.436 208.831,336.067 226.172,329.723 241.000 C 327.834 245.414,323.369 250.505,319.723 252.400 C 318.666 252.950,317.710 253.501,317.600 253.625 C 316.778 254.551,309.582 256.342,306.200 256.461 L 303.800 256.546 303.866 255.373 C 303.902 254.728,304.256 252.130,304.653 249.600 C 306.439 238.206,305.536 221.700,302.721 214.300 C 302.347 213.316,301.200 212.723,301.200 213.514 C 301.200 213.686,300.676 214.137,300.035 214.516 C 299.394 214.894,296.983 216.624,294.677 218.360 C 286.589 224.449,280.891 227.847,272.000 231.882 C 271.230 232.232,270.294 232.667,269.919 232.850 C 268.322 233.630,261.911 236.034,258.400 237.169 C 256.310 237.845,254.056 238.576,253.390 238.792 C 247.473 240.720,231.012 243.920,222.400 244.816 C 200.792 247.065,174.240 246.102,156.000 242.407 C 148.356 240.859,134.572 236.965,130.600 235.232 C 130.160 235.040,128.810 234.494,127.600 234.020 C 126.390 233.545,125.040 233.001,124.600 232.811 C 123.324 232.258,110.662 226.020,110.000 225.618 C 109.670 225.418,107.780 224.307,105.800 223.150 C 103.820 221.993,102.140 220.901,102.067 220.723 C 101.993 220.545,101.761 220.400,101.550 220.400 C 101.102 220.400,98.661 218.738,98.467 218.300 C 98.393 218.135,98.161 218.000,97.950 218.000 C 97.619 218.000,95.376 216.576,94.800 216.000 C 92.900 214.100,92.551 214.628,92.007 220.225 C 90.318 237.602,93.250 262.244,98.431 274.200 C 98.622 274.640,99.148 275.990,99.600 277.200 C 106.864 296.639,124.049 318.086,140.209 327.879 C 140.644 328.143,142.260 329.124,143.800 330.059 C 147.384 332.236,157.379 337.200,158.178 337.200 C 158.344 337.200,159.046 337.456,159.740 337.769 C 160.433 338.082,162.260 338.730,163.800 339.209 C 165.340 339.689,166.960 340.227,167.400 340.406 C 173.817 343.016,190.837 345.002,203.000 344.561 C 213.940 344.164,228.820 341.249,236.600 337.979 C 237.040 337.794,238.390 337.256,239.600 336.782 C 244.580 334.834,257.398 328.050,258.400 326.832 C 258.510 326.699,259.593 325.916,260.806 325.093 C 262.019 324.270,263.461 323.192,264.009 322.698 C 264.558 322.204,265.906 321.089,267.004 320.220 C 277.144 312.196,289.507 295.904,294.596 283.860 L 295.754 281.121 300.377 281.376 C 308.885 281.844,317.854 280.544,324.685 277.851 C 327.871 276.595,330.963 275.084,331.133 274.700 C 331.207 274.535,331.483 274.400,331.747 274.400 C 333.356 274.400,341.675 267.545,345.613 262.975 C 356.692 250.116,359.962 229.654,353.351 214.540 C 353.048 213.846,352.800 213.193,352.800 213.088 C 352.800 212.505,348.831 205.858,347.257 203.806 C 338.659 192.591,325.381 184.463,319.114 186.579 C 315.253 187.882,308.548 189.437,302.754 190.373 C 297.284 191.256,289.929 190.700,292.600 189.606 C 293.260 189.335,294.113 188.953,294.495 188.757 C 294.877 188.561,295.425 188.400,295.714 188.400 C 296.524 188.400,301.269 185.873,304.391 183.778 C 307.620 181.612,314.250 174.875,316.595 171.378 C 317.472 170.070,318.293 168.910,318.419 168.800 C 318.954 168.334,321.623 163.533,324.381 158.077 C 326.995 152.904,326.901 152.668,322.975 154.543 C 304.624 163.308,291.470 166.307,287.740 162.576 C 286.058 160.895,286.589 159.567,290.650 155.293 C 294.533 151.208,302.773 139.743,304.277 136.334 C 304.649 135.490,305.099 134.800,305.277 134.800 C 305.455 134.800,305.600 134.610,305.600 134.378 C 305.600 133.967,306.891 130.817,307.563 129.587 C 307.747 129.250,308.034 128.356,308.200 127.600 C 308.366 126.844,308.652 125.950,308.835 125.613 C 310.018 123.434,310.760 117.001,310.751 109.000 C 310.737 96.919,309.854 91.229,305.817 77.200 C 305.290 75.367,302.302 67.254,301.619 65.800 C 301.413 65.360,300.858 64.100,300.386 63.000 C 299.915 61.900,298.690 59.238,297.665 57.084 L 295.800 53.168 294.000 53.377 C 292.325 53.571,288.993 54.181,284.200 55.171 C 283.100 55.398,281.210 55.868,280.000 56.215 C 278.790 56.562,276.810 57.119,275.600 57.453 C 274.390 57.788,273.040 58.210,272.600 58.391 C 272.160 58.573,270.630 59.120,269.200 59.606 C 267.770 60.093,266.033 60.741,265.340 61.046 C 264.646 61.350,263.791 61.600,263.440 61.600 C 263.088 61.600,262.800 61.760,262.800 61.957 C 262.800 62.153,262.305 62.434,261.700 62.583 C 257.486 63.615,245.022 70.505,241.599 73.695 C 238.324 76.747,234.733 82.577,233.219 87.300 C 232.628 89.142,232.007 89.198,231.006 87.500 C 228.273 82.863,222.515 79.891,213.400 78.413 C 208.977 77.695,204.230 76.789,203.009 76.430 C 202.344 76.234,200.720 75.758,199.400 75.371 C 195.875 74.340,193.218 73.246,188.700 70.966 C 186.995 70.105,185.600 69.266,185.600 69.101 C 185.600 68.935,185.401 68.800,185.158 68.800 C 184.434 68.800,181.603 66.474,178.381 63.235 C 173.271 58.096,171.329 53.714,170.877 46.297 L 170.600 41.746 169.667 42.876 M288.754 71.175 C 289.974 71.828,290.584 74.734,291.658 85.000 C 292.282 90.961,291.876 101.500,290.881 105.200 C 288.943 112.405,284.282 122.400,282.860 122.400 C 282.431 122.400,282.359 121.931,282.538 120.300 C 283.471 111.802,283.246 96.903,282.168 95.825 C 280.833 94.490,276.694 97.282,273.200 101.875 C 271.775 103.748,269.600 107.989,269.600 108.895 C 269.600 109.195,269.435 109.611,269.234 109.820 C 269.032 110.029,268.807 110.650,268.734 111.200 C 268.496 112.975,267.452 112.370,267.009 110.200 C 266.784 109.100,266.483 108.020,266.339 107.800 C 266.195 107.580,265.948 106.500,265.788 105.400 C 265.629 104.300,265.364 103.220,265.199 103.000 C 264.177 101.639,264.038 91.084,265.014 89.027 C 266.659 85.560,275.319 78.072,283.077 73.408 C 288.052 70.418,287.640 70.579,288.754 71.175 M108.217 73.643 C 121.127 81.005,129.912 88.653,136.583 98.338 C 139.193 102.126,139.150 103.136,136.454 101.434 C 135.553 100.865,134.657 100.400,134.463 100.400 C 134.269 100.400,132.961 99.885,131.555 99.255 C 124.454 96.075,118.253 94.573,117.822 95.931 C 115.724 102.542,125.963 118.000,132.440 118.000 C 133.366 118.000,133.727 118.603,133.096 119.096 C 130.084 121.447,114.508 120.838,108.884 118.149 C 104.736 116.166,103.022 114.274,100.371 108.755 C 99.174 106.261,97.997 86.824,98.950 85.281 C 99.055 85.111,99.348 83.088,99.602 80.786 C 100.033 76.864,100.846 72.896,101.403 71.995 C 102.026 70.987,104.687 71.631,108.217 73.643 M158.400 150.172 C 171.282 154.770,179.615 169.378,172.652 175.157 C 171.952 175.738,168.566 175.512,167.265 174.798 C 157.616 169.502,150.010 167.685,143.000 169.001 C 139.368 169.682,139.283 169.712,135.200 171.733 C 130.416 174.101,128.548 173.240,128.674 168.725 C 129.029 155.919,145.573 145.593,158.400 150.172 M247.800 150.288 C 255.770 153.165,262.274 160.512,263.031 167.494 C 263.587 172.616,261.538 174.380,257.681 172.100 C 253.076 169.378,247.338 168.353,241.100 169.137 C 236.673 169.693,234.974 170.252,228.331 173.334 C 227.159 173.877,225.543 174.610,224.740 174.961 C 215.073 179.190,214.550 164.690,224.047 155.781 C 230.285 149.929,240.356 147.600,247.800 150.288 M202.586 174.422 C 212.160 176.929,213.536 182.065,206.418 188.727 C 204.540 190.485,202.185 192.092,200.110 193.033 L 198.421 193.800 198.410 196.962 C 198.382 205.713,208.439 206.939,210.205 198.400 C 210.643 196.282,211.130 195.600,212.205 195.600 C 216.365 195.600,213.807 204.236,208.848 206.935 C 206.846 208.025,201.952 208.492,201.427 207.644 C 201.306 207.449,200.713 207.164,200.108 207.013 C 199.503 206.861,198.913 206.616,198.798 206.468 C 198.682 206.321,198.029 205.694,197.346 205.075 L 196.104 203.950 194.752 205.214 C 189.858 209.787,182.146 208.574,179.181 202.763 C 178.017 200.480,177.736 197.355,178.609 196.390 C 179.801 195.073,181.600 195.612,181.600 197.285 C 181.600 197.684,181.769 198.323,181.976 198.705 C 182.183 199.087,182.463 199.922,182.599 200.561 C 184.076 207.503,194.000 203.939,194.000 196.466 L 194.000 193.721 192.310 192.961 C 186.691 190.432,181.200 184.557,181.200 181.075 C 181.200 175.347,192.590 171.803,202.586 174.422 M190.600 177.888 C 188.483 178.403,187.766 180.311,189.289 181.377 C 191.434 182.880,196.400 181.710,196.400 179.703 C 196.400 178.238,193.232 177.246,190.600 177.888 " stroke="none" fill="#fbf2e0" fill-rule="evenodd"></path><path id="path1" d="M0.000 200.000 L 0.000 400.000 200.000 400.000 L 400.000 400.000 400.000 200.000 L 400.000 0.000 200.000 0.000 L 0.000 0.000 0.000 200.000 M189.340 22.542 C 181.471 31.230,179.233 44.588,184.257 52.887 C 188.629 60.108,200.483 65.722,215.800 67.825 C 218.022 68.130,222.842 69.194,226.774 70.246 L 229.347 70.936 230.372 69.568 C 236.910 60.844,254.566 51.873,277.400 45.673 C 286.472 43.209,298.516 41.811,300.720 42.966 C 304.492 44.942,310.828 57.326,317.213 75.200 C 318.352 78.390,319.427 81.540,319.601 82.200 C 319.776 82.860,319.941 83.220,319.968 83.000 C 319.996 82.780,320.272 83.140,320.582 83.800 C 321.723 86.230,322.800 88.763,322.800 89.018 C 322.800 89.161,323.085 89.936,323.433 90.740 C 323.782 91.543,324.322 92.791,324.633 93.514 C 324.945 94.236,325.200 95.019,325.200 95.253 C 325.200 95.487,325.483 96.336,325.830 97.140 C 326.176 97.943,326.690 99.140,326.973 99.800 C 327.255 100.460,328.124 102.350,328.904 104.000 C 331.661 109.832,332.351 111.412,332.618 112.504 C 332.767 113.111,333.049 113.706,333.244 113.827 C 333.440 113.948,333.600 114.414,333.600 114.863 C 333.600 115.312,333.852 116.246,334.160 116.940 C 335.341 119.602,336.690 125.877,337.329 131.684 C 337.922 137.074,337.994 137.147,341.267 135.632 C 349.313 131.908,353.108 135.508,348.597 142.584 C 347.890 143.693,344.068 150.540,340.104 157.800 C 336.139 165.060,332.244 172.110,331.448 173.467 C 329.649 176.534,329.588 176.222,332.221 177.427 C 373.854 196.470,380.681 250.953,344.997 279.388 C 337.640 285.251,321.992 291.981,315.668 292.002 C 312.655 292.012,312.038 292.667,310.014 298.000 C 309.168 300.229,308.529 301.640,305.758 307.400 C 304.303 310.426,299.736 318.369,299.204 318.800 C 299.069 318.910,298.524 319.720,297.994 320.600 C 297.464 321.480,296.843 322.403,296.615 322.651 C 296.387 322.899,295.930 323.501,295.600 323.988 C 295.270 324.476,294.730 325.205,294.400 325.608 C 294.070 326.012,293.260 327.012,292.600 327.830 C 289.169 332.083,282.210 339.240,278.432 342.400 C 277.249 343.390,275.873 344.560,275.376 345.000 C 274.878 345.440,274.078 346.070,273.598 346.400 C 273.118 346.730,272.399 347.270,272.000 347.600 C 271.601 347.930,270.876 348.470,270.388 348.800 C 269.901 349.130,269.299 349.580,269.051 349.800 C 268.275 350.489,263.110 353.807,260.600 355.230 C 259.280 355.978,257.480 357.001,256.600 357.502 C 255.153 358.326,253.262 359.242,249.200 361.086 C 248.430 361.436,247.322 361.964,246.738 362.261 C 246.154 362.557,245.462 362.800,245.199 362.800 C 244.936 362.800,244.154 363.045,243.460 363.344 C 239.949 364.859,237.107 365.827,233.000 366.908 C 231.680 367.255,229.790 367.754,228.800 368.016 C 218.420 370.765,197.401 371.888,186.200 370.292 C 177.957 369.117,174.900 368.457,170.692 366.943 C 169.862 366.644,168.827 366.400,168.392 366.400 C 167.956 366.400,167.600 366.250,167.600 366.067 C 167.600 365.884,166.835 365.543,165.900 365.309 C 164.965 365.075,163.210 364.488,162.000 364.006 C 160.790 363.523,159.125 362.942,158.300 362.715 C 157.475 362.488,156.800 362.145,156.800 361.951 C 156.800 361.758,156.549 361.600,156.241 361.600 C 155.771 361.600,153.298 360.394,146.478 356.838 C 145.885 356.529,145.340 356.124,145.267 355.938 C 145.193 355.752,144.961 355.600,144.750 355.600 C 144.540 355.600,143.880 355.262,143.284 354.850 C 142.688 354.437,140.850 353.227,139.200 352.161 C 136.389 350.345,135.934 350.026,134.686 349.000 C 134.418 348.780,133.299 347.884,132.199 347.008 C 131.100 346.133,129.989 345.233,129.730 345.008 C 129.472 344.784,128.427 343.894,127.408 343.031 C 124.935 340.936,119.829 335.824,117.600 333.211 C 116.610 332.050,115.468 330.718,115.062 330.250 C 112.371 327.150,107.590 320.651,105.609 317.400 C 105.073 316.520,104.491 315.740,104.317 315.667 C 104.143 315.593,104.000 315.376,104.000 315.184 C 104.000 314.992,103.430 313.882,102.733 312.718 C 100.945 309.728,95.695 299.116,95.377 297.850 C 95.231 297.268,94.951 296.694,94.756 296.573 C 94.560 296.452,94.400 296.076,94.400 295.737 C 94.400 295.398,94.153 294.554,93.851 293.860 C 93.549 293.167,92.458 290.170,91.428 287.200 C 90.398 284.230,89.181 280.902,88.725 279.805 C 87.376 276.559,85.669 270.978,84.198 265.000 C 82.853 259.537,82.499 257.601,81.497 250.200 C 80.851 245.431,80.877 219.572,81.533 214.400 C 81.798 212.310,82.120 209.520,82.247 208.200 L 82.478 205.800 80.139 203.860 C 57.050 184.706,38.311 153.570,33.578 126.498 C 33.009 123.240,33.197 122.703,34.502 123.861 C 39.127 127.966,50.520 132.880,63.600 136.412 C 65.370 136.890,69.504 137.600,70.515 137.600 C 71.393 137.600,71.434 138.327,69.981 128.200 C 68.744 119.577,68.606 101.755,69.716 94.000 C 72.046 77.722,78.465 59.665,86.825 45.867 C 88.764 42.666,92.265 41.853,99.249 42.982 C 116.219 45.725,130.340 50.581,145.698 58.955 L 149.196 60.863 149.547 59.931 C 149.740 59.419,150.025 58.370,150.180 57.600 C 153.418 41.524,166.467 27.204,182.200 22.460 C 191.215 19.741,191.870 19.749,189.340 22.542 M171.301 42.600 C 171.305 43.480,171.387 43.793,171.483 43.295 C 171.579 42.798,171.575 42.078,171.475 41.695 C 171.375 41.313,171.296 41.720,171.301 42.600 M171.301 47.800 C 171.305 48.680,171.387 48.993,171.483 48.495 C 171.579 47.998,171.575 47.278,171.475 46.895 C 171.375 46.513,171.296 46.920,171.301 47.800 M178.800 63.325 C 178.800 63.394,179.385 63.979,180.100 64.625 L 181.400 65.800 180.225 64.500 C 179.130 63.288,178.800 63.016,178.800 63.325 M160.134 67.200 C 160.134 68.850,160.205 69.525,160.291 68.700 C 160.378 67.875,160.378 66.525,160.291 65.700 C 160.205 64.875,160.134 65.550,160.134 67.200 M162.800 83.410 C 162.800 83.485,163.339 83.929,163.997 84.398 C 164.666 84.874,165.104 85.019,164.990 84.725 C 164.811 84.265,162.800 83.058,162.800 83.410 M268.575 84.900 L 267.400 86.200 268.700 85.025 C 269.415 84.379,270.000 83.794,270.000 83.725 C 270.000 83.416,269.670 83.688,268.575 84.900 M291.293 88.000 C 291.293 88.770,291.375 89.085,291.476 88.700 C 291.576 88.315,291.576 87.685,291.476 87.300 C 291.375 86.915,291.293 87.230,291.293 88.000 M264.531 94.200 C 264.533 95.740,264.605 96.321,264.692 95.491 C 264.779 94.661,264.777 93.401,264.689 92.691 C 264.600 91.981,264.529 92.660,264.531 94.200 M117.309 97.200 C 117.309 98.190,117.387 98.595,117.482 98.100 C 117.578 97.605,117.578 96.795,117.482 96.300 C 117.387 95.805,117.309 96.210,117.309 97.200 M291.293 98.400 C 291.293 99.170,291.375 99.485,291.476 99.100 C 291.576 98.715,291.576 98.085,291.476 97.700 C 291.375 97.315,291.293 97.630,291.293 98.400 M79.693 115.600 C 79.693 116.370,79.775 116.685,79.876 116.300 C 79.976 115.915,79.976 115.285,79.876 114.900 C 79.775 114.515,79.693 114.830,79.693 115.600 M282.893 120.800 C 282.893 121.570,282.975 121.885,283.076 121.500 C 283.176 121.115,283.176 120.485,283.076 120.100 C 282.975 119.715,282.893 120.030,282.893 120.800 M223.578 156.700 L 222.200 158.200 223.700 156.822 C 225.096 155.538,225.384 155.200,225.078 155.200 C 225.012 155.200,224.337 155.875,223.578 156.700 M256.800 156.600 C 257.546 157.370,258.247 158.000,258.357 158.000 C 258.467 158.000,257.946 157.370,257.200 156.600 C 256.454 155.830,255.753 155.200,255.643 155.200 C 255.533 155.200,256.054 155.830,256.800 156.600 M128.901 169.000 C 128.905 169.880,128.987 170.193,129.083 169.695 C 129.179 169.198,129.175 168.478,129.075 168.095 C 128.975 167.713,128.896 168.120,128.901 169.000 M146.707 168.290 C 147.426 168.379,148.506 168.377,149.107 168.286 C 149.708 168.195,149.120 168.122,147.800 168.124 C 146.480 168.126,145.988 168.201,146.707 168.290 M220.341 175.301 C 220.543 175.503,221.133 175.601,221.654 175.519 C 222.455 175.393,222.398 175.337,221.287 175.152 C 220.493 175.021,220.119 175.079,220.341 175.301 M76.400 186.125 C 76.400 186.194,76.985 186.779,77.700 187.425 L 79.000 188.600 77.825 187.300 C 76.730 186.088,76.400 185.816,76.400 186.125 M293.200 189.800 L 292.200 190.372 293.324 190.386 C 293.942 190.394,294.345 190.235,294.221 190.034 C 294.097 189.833,294.221 189.577,294.498 189.466 C 294.774 189.354,294.820 189.255,294.600 189.246 C 294.380 189.236,293.750 189.486,293.200 189.800 M82.200 192.000 C 83.283 193.100,84.260 194.000,84.370 194.000 C 84.480 194.000,83.683 193.100,82.600 192.000 C 81.517 190.900,80.540 190.000,80.430 190.000 C 80.320 190.000,81.117 190.900,82.200 192.000 M197.701 197.400 C 197.705 198.280,197.787 198.593,197.883 198.095 C 197.979 197.598,197.975 196.878,197.875 196.495 C 197.775 196.113,197.696 196.520,197.701 197.400 M306.109 230.800 C 306.109 231.790,306.187 232.195,306.282 231.700 C 306.378 231.205,306.378 230.395,306.282 229.900 C 306.187 229.405,306.109 229.810,306.109 230.800 M90.946 233.400 C 90.947 235.600,91.014 236.449,91.095 235.287 C 91.176 234.124,91.176 232.324,91.093 231.287 C 91.011 230.249,90.945 231.200,90.946 233.400 M184.307 235.490 C 185.026 235.579,186.106 235.577,186.707 235.486 C 187.308 235.395,186.720 235.322,185.400 235.324 C 184.080 235.326,183.588 235.401,184.307 235.490 M207.107 235.490 C 207.826 235.579,208.906 235.577,209.507 235.486 C 210.108 235.395,209.520 235.322,208.200 235.324 C 206.880 235.326,206.388 235.401,207.107 235.490 M193.282 235.896 C 194.758 235.973,197.278 235.973,198.882 235.897 C 200.487 235.821,199.280 235.758,196.200 235.758 C 193.120 235.757,191.807 235.819,193.282 235.896 M306.101 238.600 C 306.105 239.480,306.187 239.793,306.283 239.295 C 306.379 238.798,306.375 238.078,306.275 237.695 C 306.175 237.313,306.096 237.720,306.101 238.600 M184.505 245.487 C 185.114 245.579,186.014 245.577,186.505 245.482 C 186.997 245.387,186.500 245.311,185.400 245.314 C 184.300 245.317,183.897 245.395,184.505 245.487 M205.891 245.489 C 206.601 245.577,207.861 245.579,208.691 245.492 C 209.521 245.405,208.940 245.333,207.400 245.331 C 205.860 245.329,205.181 245.400,205.891 245.489 M307.305 281.887 C 307.914 281.979,308.814 281.977,309.305 281.882 C 309.797 281.787,309.300 281.711,308.200 281.714 C 307.100 281.717,306.697 281.795,307.305 281.887 M273.588 314.700 L 271.000 317.400 273.700 314.812 C 275.185 313.388,276.400 312.173,276.400 312.112 C 276.400 311.817,275.993 312.192,273.588 314.700 M186.100 344.676 C 186.485 344.776,187.115 344.776,187.500 344.676 C 187.885 344.575,187.570 344.493,186.800 344.493 C 186.030 344.493,185.715 344.575,186.100 344.676 M190.505 345.087 C 191.114 345.179,192.014 345.177,192.505 345.082 C 192.997 344.987,192.500 344.911,191.400 344.914 C 190.300 344.917,189.897 344.995,190.505 345.087 M203.305 345.087 C 203.914 345.179,204.814 345.177,205.305 345.082 C 205.797 344.987,205.300 344.911,204.200 344.914 C 203.100 344.917,202.697 344.995,203.305 345.087 " stroke="none" fill="#a16132" fill-rule="evenodd"></path><path id="path2" d="M187.200 21.034 C 167.206 26.317,153.817 39.542,150.180 57.600 C 150.025 58.370,149.740 59.419,149.547 59.931 L 149.196 60.863 145.698 58.955 C 130.340 50.581,116.219 45.725,99.249 42.982 C 92.265 41.853,88.764 42.666,86.825 45.867 C 78.465 59.665,72.046 77.722,69.716 94.000 C 68.606 101.755,68.744 119.577,69.981 128.200 C 71.434 138.327,71.393 137.600,70.515 137.600 C 69.504 137.600,65.370 136.890,63.600 136.412 C 50.520 132.880,39.127 127.966,34.502 123.861 C 33.197 122.703,33.009 123.240,33.578 126.498 C 38.311 153.570,57.050 184.706,80.139 203.860 L 82.478 205.800 82.247 208.200 C 82.120 209.520,81.798 212.310,81.533 214.400 C 80.877 219.572,80.851 245.431,81.497 250.200 C 82.499 257.601,82.853 259.537,84.198 265.000 C 85.669 270.978,87.376 276.559,88.725 279.805 C 89.181 280.902,90.398 284.230,91.428 287.200 C 92.458 290.170,93.549 293.167,93.851 293.860 C 94.153 294.554,94.400 295.398,94.400 295.737 C 94.400 296.076,94.560 296.452,94.756 296.573 C 94.951 296.694,95.231 297.268,95.377 297.850 C 95.695 299.116,100.945 309.728,102.733 312.718 C 103.430 313.882,104.000 314.992,104.000 315.184 C 104.000 315.376,104.143 315.593,104.317 315.667 C 104.491 315.740,105.073 316.520,105.609 317.400 C 107.590 320.651,112.371 327.150,115.062 330.250 C 115.468 330.718,116.610 332.050,117.600 333.211 C 119.829 335.824,124.935 340.936,127.408 343.031 C 128.427 343.894,129.472 344.784,129.730 345.008 C 129.989 345.233,131.100 346.133,132.199 347.008 C 133.299 347.884,134.418 348.780,134.686 349.000 C 135.934 350.026,136.389 350.345,139.200 352.161 C 140.850 353.227,142.688 354.437,143.284 354.850 C 143.880 355.262,144.540 355.600,144.750 355.600 C 144.961 355.600,145.193 355.752,145.267 355.938 C 145.340 356.124,145.885 356.529,146.478 356.838 C 153.298 360.394,155.771 361.600,156.241 361.600 C 156.549 361.600,156.800 361.758,156.800 361.951 C 156.800 362.145,157.475 362.488,158.300 362.715 C 159.125 362.942,160.790 363.523,162.000 364.006 C 163.210 364.488,164.965 365.075,165.900 365.309 C 166.835 365.543,167.600 365.884,167.600 366.067 C 167.600 366.250,167.956 366.400,168.392 366.400 C 168.827 366.400,169.862 366.644,170.692 366.943 C 174.900 368.457,177.957 369.117,186.200 370.292 C 197.401 371.888,218.420 370.765,228.800 368.016 C 229.790 367.754,231.680 367.255,233.000 366.908 C 237.107 365.827,239.949 364.859,243.460 363.344 C 244.154 363.045,244.936 362.800,245.199 362.800 C 245.462 362.800,246.154 362.557,246.738 362.261 C 247.322 361.964,248.430 361.436,249.200 361.086 C 253.262 359.242,255.153 358.326,256.600 357.502 C 257.480 357.001,259.280 355.978,260.600 355.230 C 263.110 353.807,268.275 350.489,269.051 349.800 C 269.299 349.580,269.901 349.130,270.388 348.800 C 270.876 348.470,271.601 347.930,272.000 347.600 C 272.399 347.270,273.118 346.730,273.598 346.400 C 274.078 346.070,274.878 345.440,275.376 345.000 C 275.873 344.560,277.249 343.390,278.432 342.400 C 282.210 339.240,289.169 332.083,292.600 327.830 C 293.260 327.012,294.070 326.012,294.400 325.608 C 294.730 325.205,295.270 324.476,295.600 323.988 C 295.930 323.501,296.387 322.899,296.615 322.651 C 296.843 322.403,297.464 321.480,297.994 320.600 C 298.524 319.720,299.069 318.910,299.204 318.800 C 300.570 317.693,307.874 303.639,310.014 298.000 C 312.038 292.667,312.655 292.012,315.668 292.002 C 321.992 291.981,337.640 285.251,344.997 279.388 C 380.681 250.953,373.854 196.470,332.221 177.427 C 329.588 176.222,329.649 176.534,331.448 173.467 C 332.244 172.110,336.139 165.060,340.104 157.800 C 344.068 150.540,347.890 143.693,348.597 142.584 C 353.108 135.508,349.313 131.908,341.267 135.632 C 337.994 137.147,337.922 137.074,337.329 131.684 C 336.690 125.877,335.341 119.602,334.160 116.940 C 333.852 116.246,333.600 115.312,333.600 114.863 C 333.600 114.414,333.440 113.948,333.244 113.827 C 333.049 113.706,332.767 113.111,332.618 112.504 C 332.351 111.412,331.661 109.832,328.904 104.000 C 328.124 102.350,327.255 100.460,326.973 99.800 C 326.690 99.140,326.176 97.943,325.830 97.140 C 325.483 96.336,325.200 95.487,325.200 95.253 C 325.200 95.019,324.945 94.236,324.633 93.514 C 324.322 92.791,323.782 91.543,323.433 90.740 C 323.085 89.936,322.800 89.161,322.800 89.018 C 322.800 88.763,321.723 86.230,320.582 83.800 C 320.272 83.140,319.996 82.780,319.968 83.000 C 319.941 83.220,319.776 82.860,319.601 82.200 C 319.427 81.540,318.352 78.390,317.213 75.200 C 310.828 57.326,304.492 44.942,300.720 42.966 C 298.516 41.811,286.472 43.209,277.400 45.673 C 254.566 51.873,236.910 60.844,230.372 69.568 L 229.347 70.936 226.774 70.246 C 222.842 69.194,218.022 68.130,215.800 67.825 C 200.483 65.722,188.629 60.108,184.257 52.887 C 179.233 44.588,181.471 31.230,189.340 22.542 C 191.551 20.101,191.327 19.944,187.200 21.034 M171.474 43.204 C 170.576 50.785,173.857 58.761,180.200 64.417 C 181.300 65.397,182.290 66.291,182.400 66.403 C 183.576 67.598,192.872 72.800,193.831 72.800 C 193.968 72.800,194.646 73.048,195.340 73.351 C 197.607 74.343,200.137 75.114,204.000 75.991 C 206.090 76.466,208.430 77.007,209.200 77.194 C 209.970 77.381,211.590 77.656,212.800 77.806 C 221.663 78.905,231.600 84.102,231.600 87.638 C 231.600 88.534,232.381 87.869,232.793 86.621 C 235.245 79.190,240.001 73.428,247.400 68.921 C 249.436 67.681,261.138 62.000,261.657 62.000 C 261.977 62.000,262.411 61.856,262.620 61.680 C 265.021 59.658,285.517 53.922,293.835 52.944 L 295.999 52.690 298.762 58.445 C 309.257 80.307,313.799 104.882,310.399 121.407 C 308.520 130.537,304.552 138.496,296.841 148.600 C 294.705 151.399,294.671 151.440,290.419 156.379 C 286.885 160.482,286.672 161.178,288.527 162.558 C 290.538 164.054,298.844 163.740,303.000 162.011 C 303.440 161.828,304.970 161.283,306.400 160.800 C 307.830 160.317,309.360 159.769,309.800 159.582 C 310.240 159.396,311.590 158.851,312.800 158.373 C 314.010 157.895,315.810 157.143,316.800 156.702 C 317.790 156.261,319.590 155.459,320.800 154.920 C 322.010 154.381,323.598 153.669,324.328 153.338 C 327.372 151.958,327.483 153.306,324.764 158.620 C 316.356 175.053,307.112 184.767,295.897 188.957 C 288.170 191.844,304.465 190.247,315.800 187.006 C 321.103 185.490,322.399 185.264,323.708 185.631 C 326.563 186.430,336.315 191.931,338.310 193.868 C 338.590 194.140,339.612 195.011,340.579 195.804 C 368.314 218.531,359.732 265.001,325.400 277.998 C 324.080 278.498,322.640 279.060,322.200 279.246 C 317.341 281.308,303.028 282.610,297.055 281.534 C 296.203 281.381,296.419 281.036,293.266 287.600 C 291.382 291.523,286.019 300.365,283.926 303.000 C 273.752 315.805,265.632 323.097,253.222 330.573 C 249.845 332.608,242.374 336.398,241.731 336.402 C 241.549 336.404,240.888 336.672,240.262 336.999 C 238.754 337.785,229.035 341.090,226.778 341.584 C 225.800 341.798,223.740 342.250,222.200 342.588 C 213.254 344.551,208.745 345.000,198.000 345.000 C 188.116 345.000,184.651 344.703,176.600 343.167 C 162.713 340.517,147.193 333.903,137.009 326.294 C 136.784 326.126,135.700 325.327,134.600 324.520 C 120.046 313.836,105.160 294.378,99.469 278.600 C 91.832 257.427,89.420 239.146,91.593 218.900 C 92.209 213.160,91.835 213.347,96.408 216.500 C 100.477 219.306,100.335 219.214,106.277 222.834 C 110.172 225.207,121.315 230.883,125.400 232.576 C 126.280 232.940,127.313 233.410,127.695 233.619 C 128.077 233.829,128.589 234.000,128.834 234.000 C 129.079 234.000,129.846 234.260,130.540 234.578 C 132.683 235.560,141.439 238.347,145.724 239.411 C 147.966 239.967,150.430 240.588,151.200 240.790 C 167.880 245.173,202.575 246.946,221.795 244.398 C 234.419 242.725,244.089 240.926,250.600 239.038 C 251.700 238.719,253.320 238.250,254.200 237.995 C 256.930 237.204,262.937 235.155,264.260 234.563 C 264.954 234.253,265.721 234.000,265.966 234.000 C 266.211 234.000,266.723 233.826,267.105 233.614 C 267.487 233.402,268.700 232.848,269.800 232.384 C 278.650 228.647,287.069 223.602,297.271 215.918 C 302.810 211.747,302.450 211.819,303.364 214.700 C 303.766 215.965,304.253 217.450,304.446 218.000 C 306.915 225.023,306.745 245.893,304.144 255.164 L 303.873 256.128 307.239 255.890 C 337.555 253.751,338.803 211.040,308.600 209.314 C 305.223 209.121,304.407 208.938,303.359 208.140 C 299.395 205.121,293.222 206.049,287.465 210.529 C 280.540 215.918,272.622 220.422,263.800 223.993 C 262.040 224.705,260.240 225.444,259.800 225.634 C 259.070 225.950,251.884 228.307,249.000 229.176 C 215.325 239.323,166.174 237.619,134.000 225.190 C 132.790 224.723,131.338 224.195,130.773 224.019 C 130.208 223.842,129.398 223.518,128.973 223.298 C 128.548 223.079,125.377 221.525,121.926 219.846 C 114.213 216.091,103.058 209.405,99.486 206.396 C 99.219 206.171,97.740 205.056,96.200 203.919 C 94.660 202.783,93.310 201.745,93.200 201.613 C 93.090 201.480,92.460 200.960,91.800 200.455 C 84.180 194.629,70.668 180.390,64.986 172.200 C 59.742 164.640,58.590 162.856,56.266 158.692 C 50.991 149.243,48.522 143.200,49.938 143.200 C 50.181 143.200,51.870 143.968,53.690 144.906 C 63.565 149.994,77.120 150.920,88.571 147.287 C 91.516 146.353,93.641 145.236,92.512 145.216 C 90.168 145.174,85.591 141.620,83.915 138.541 C 82.058 135.128,81.402 132.589,80.314 124.600 C 79.720 120.233,79.721 100.189,80.317 96.400 C 82.659 81.489,86.011 71.078,92.876 57.400 C 95.440 52.290,94.960 52.604,99.066 53.356 C 119.100 57.024,137.287 64.799,154.368 77.000 C 159.644 80.768,160.412 81.331,160.944 81.813 C 163.483 84.115,164.600 84.357,163.653 82.400 C 159.724 74.275,159.048 63.490,161.987 55.800 C 164.353 49.611,165.093 48.202,168.347 43.700 C 170.703 40.441,171.822 40.263,171.474 43.204 M102.017 72.180 C 98.983 75.835,98.341 101.215,101.091 108.800 C 104.199 117.375,116.157 122.234,127.723 119.621 C 128.645 119.413,130.120 119.113,131.000 118.955 C 132.039 118.769,132.330 118.607,131.830 118.491 C 124.235 116.744,115.532 103.099,117.363 95.807 C 117.878 93.754,124.861 95.467,134.740 100.070 C 137.669 101.434,138.121 101.308,136.798 99.495 C 136.278 98.783,135.480 97.660,135.026 97.000 C 133.809 95.232,127.865 88.360,126.542 87.191 C 116.971 78.736,103.446 70.458,102.017 72.180 M285.993 72.132 C 280.642 74.618,270.272 82.899,266.687 87.548 L 265.000 89.736 265.016 94.968 C 265.033 100.150,265.265 101.582,267.361 109.400 L 267.897 111.400 268.548 109.851 C 268.907 108.999,269.200 108.141,269.200 107.944 C 269.200 105.354,275.799 97.338,279.480 95.455 C 283.248 93.528,283.406 94.082,283.370 109.091 C 283.336 123.143,283.151 122.650,286.094 116.372 C 288.419 111.412,288.800 110.502,288.800 109.920 C 288.800 109.612,288.961 109.189,289.158 108.980 C 289.355 108.771,289.703 107.790,289.933 106.800 C 290.162 105.810,290.569 104.190,290.837 103.200 C 291.473 100.848,291.473 85.551,290.837 81.835 C 290.577 80.314,290.197 77.755,289.993 76.148 C 289.438 71.765,288.598 70.923,285.993 72.132 M147.400 149.980 C 137.814 151.564,129.505 160.057,129.427 168.350 C 129.402 171.116,129.468 171.351,130.502 172.129 L 131.604 172.959 134.834 171.279 C 136.611 170.356,138.374 169.600,138.752 169.600 C 139.131 169.600,139.613 169.427,139.825 169.215 C 140.037 169.003,141.951 168.625,144.078 168.374 C 150.443 167.623,155.288 168.553,162.400 171.890 C 168.326 174.671,168.685 174.800,170.491 174.800 C 175.608 174.800,176.015 167.917,171.322 160.731 C 166.077 152.697,156.636 148.454,147.400 149.980 M236.473 150.029 C 226.451 151.330,216.438 162.720,217.774 171.300 C 218.466 175.742,221.296 176.170,228.168 172.871 C 239.610 167.378,249.124 166.843,257.094 171.244 C 264.988 175.603,264.591 164.618,256.562 156.540 C 251.103 151.049,244.674 148.965,236.473 150.029 M190.600 174.368 C 183.287 175.851,180.143 179.594,182.500 184.011 C 184.064 186.942,190.297 191.979,193.398 192.817 C 194.753 193.183,194.773 198.693,193.427 200.990 C 190.088 206.688,183.610 205.694,181.592 199.173 C 180.672 196.203,180.422 195.863,179.433 196.243 C 178.517 196.594,178.293 197.937,178.784 200.129 C 180.487 207.728,188.750 210.019,194.786 204.565 L 196.323 203.176 197.062 204.100 C 202.452 210.847,213.600 207.029,213.600 198.438 C 213.600 195.461,211.542 195.198,210.798 198.079 C 209.651 202.519,207.620 204.571,204.421 204.523 C 198.145 204.428,194.853 195.219,200.146 192.566 C 207.223 189.020,211.701 182.892,209.978 179.111 C 208.415 175.682,197.409 172.988,190.600 174.368 M195.818 178.182 C 197.065 179.428,197.057 180.200,195.787 181.377 C 193.411 183.579,187.983 182.678,188.006 180.084 C 188.030 177.411,193.673 176.037,195.818 178.182 " stroke="none" fill="#3b1b0c" fill-rule="evenodd"></path><path id="path3" d="M169.465 42.700 L 168.330 44.200 169.542 42.919 L 170.754 41.639 170.910 43.119 L 171.066 44.600 171.133 42.900 C 171.215 40.812,170.921 40.776,169.465 42.700 M170.893 47.200 C 170.893 47.970,170.975 48.285,171.076 47.900 C 171.176 47.515,171.176 46.885,171.076 46.500 C 170.975 46.115,170.893 46.430,170.893 47.200 M171.256 50.800 C 171.256 51.130,171.411 51.760,171.600 52.200 C 171.817 52.704,171.944 52.778,171.944 52.400 C 171.944 52.070,171.789 51.440,171.600 51.000 C 171.383 50.496,171.256 50.422,171.256 50.800 M161.400 58.800 C 161.248 59.491,161.207 60.141,161.309 60.242 C 161.411 60.344,161.609 59.853,161.750 59.150 C 162.083 57.483,161.760 57.160,161.400 58.800 M160.537 67.400 C 160.539 69.160,160.609 69.830,160.693 68.889 C 160.778 67.949,160.777 66.509,160.691 65.689 C 160.605 64.870,160.536 65.640,160.537 67.400 M242.887 72.300 C 241.930 73.235,241.914 73.281,242.781 72.606 C 244.488 71.276,244.569 71.200,244.286 71.200 C 244.136 71.200,243.506 71.695,242.887 72.300 M195.200 73.831 C 195.200 74.101,197.278 74.856,197.476 74.657 C 197.567 74.567,197.092 74.301,196.420 74.067 C 195.749 73.833,195.200 73.727,195.200 73.831 M161.206 74.633 C 161.209 75.055,161.395 75.670,161.618 76.000 C 161.915 76.438,161.952 76.276,161.756 75.400 C 161.427 73.929,161.198 73.610,161.206 74.633 M199.800 75.600 C 200.240 75.789,200.870 75.944,201.200 75.944 C 201.578 75.944,201.504 75.817,201.000 75.600 C 200.560 75.411,199.930 75.256,199.600 75.256 C 199.222 75.256,199.296 75.383,199.800 75.600 M204.400 76.800 C 205.768 77.238,206.819 77.238,205.800 76.800 C 205.360 76.611,204.640 76.462,204.200 76.468 C 203.557 76.477,203.596 76.543,204.400 76.800 M163.228 80.600 C 163.228 80.820,163.486 81.450,163.800 82.000 C 164.114 82.550,164.372 82.820,164.372 82.600 C 164.372 82.380,164.114 81.750,163.800 81.200 C 163.486 80.650,163.228 80.380,163.228 80.600 M291.301 83.000 C 291.305 83.880,291.387 84.193,291.483 83.695 C 291.579 83.198,291.575 82.478,291.475 82.095 C 291.375 81.713,291.296 82.120,291.301 83.000 M225.800 82.257 C 227.837 84.064,228.587 84.591,227.802 83.663 C 227.366 83.148,226.647 82.541,226.204 82.314 C 225.762 82.087,225.580 82.062,225.800 82.257 M268.800 84.200 C 267.828 85.190,267.123 86.000,267.233 86.000 C 267.343 86.000,268.228 85.190,269.200 84.200 C 270.172 83.210,270.877 82.400,270.767 82.400 C 270.657 82.400,269.772 83.210,268.800 84.200 M234.065 84.217 C 233.395 85.688,233.523 86.002,234.247 84.665 C 234.586 84.040,234.788 83.454,234.696 83.363 C 234.605 83.271,234.321 83.656,234.065 84.217 M165.073 84.645 C 165.265 85.147,165.194 85.244,164.806 85.004 C 164.454 84.786,164.372 84.831,164.562 85.138 C 164.719 85.392,165.017 85.600,165.224 85.600 C 165.723 85.600,165.708 84.514,165.205 84.203 C 164.970 84.058,164.916 84.237,165.073 84.645 M98.920 87.200 C 98.920 88.410,98.995 88.905,99.087 88.300 C 99.178 87.695,99.178 86.705,99.087 86.100 C 98.995 85.495,98.920 85.990,98.920 87.200 M291.701 87.800 C 291.705 88.680,291.787 88.993,291.883 88.495 C 291.979 87.998,291.975 87.278,291.875 86.895 C 291.775 86.513,291.696 86.920,291.701 87.800 M130.400 90.925 C 130.400 90.994,130.985 91.579,131.700 92.225 L 133.000 93.400 131.825 92.100 C 130.730 90.888,130.400 90.616,130.400 90.925 M274.637 99.643 C 273.627 100.767,272.800 101.887,272.800 102.132 C 272.800 102.377,273.097 102.133,273.460 101.589 C 273.823 101.045,274.759 99.925,275.541 99.100 C 276.323 98.275,276.853 97.600,276.718 97.600 C 276.584 97.600,275.647 98.519,274.637 99.643 M291.693 98.800 C 291.693 99.570,291.775 99.885,291.876 99.500 C 291.976 99.115,291.976 98.485,291.876 98.100 C 291.775 97.715,291.693 98.030,291.693 98.800 M98.920 100.000 C 98.920 101.210,98.995 101.705,99.087 101.100 C 99.178 100.495,99.178 99.505,99.087 98.900 C 98.995 98.295,98.920 98.790,98.920 100.000 M117.628 99.033 C 117.644 99.675,117.816 100.560,118.010 101.000 C 118.247 101.534,118.286 101.202,118.127 100.000 C 117.846 97.880,117.588 97.380,117.628 99.033 M282.893 99.200 C 282.893 99.970,282.975 100.285,283.076 99.900 C 283.176 99.515,283.176 98.885,283.076 98.500 C 282.975 98.115,282.893 98.430,282.893 99.200 M138.246 101.369 C 138.489 102.009,138.409 102.089,137.769 101.846 C 137.152 101.611,137.099 101.652,137.500 102.056 C 137.889 102.448,138.107 102.453,138.480 102.080 C 138.853 101.707,138.848 101.489,138.456 101.100 C 138.052 100.699,138.011 100.752,138.246 101.369 M264.800 101.776 C 264.800 102.313,264.947 102.844,265.128 102.955 C 265.308 103.067,265.377 102.627,265.282 101.979 C 265.072 100.549,264.800 100.435,264.800 101.776 M283.351 105.600 C 283.351 108.130,283.416 109.165,283.496 107.900 C 283.575 106.635,283.575 104.565,283.496 103.300 C 283.416 102.035,283.351 103.070,283.351 105.600 M310.960 109.400 C 310.961 112.700,311.022 113.997,311.098 112.282 C 311.173 110.567,311.172 107.867,311.097 106.282 C 311.021 104.697,310.959 106.100,310.960 109.400 M267.328 111.400 C 267.425 112.333,268.442 112.478,268.732 111.600 C 268.898 111.097,268.828 111.085,268.298 111.521 C 267.767 111.960,267.634 111.928,267.456 111.321 C 267.282 110.725,267.260 110.738,267.328 111.400 M282.928 114.000 C 282.928 115.430,283.001 116.015,283.089 115.300 C 283.178 114.585,283.178 113.415,283.089 112.700 C 283.001 111.985,282.928 112.570,282.928 114.000 M80.109 118.800 C 80.109 119.790,80.187 120.195,80.282 119.700 C 80.378 119.205,80.378 118.395,80.282 117.900 C 80.187 117.405,80.109 117.810,80.109 118.800 M132.790 118.386 C 133.272 118.690,133.199 118.831,132.390 119.154 C 131.781 119.397,131.650 119.559,132.051 119.575 C 132.409 119.589,132.903 119.358,133.148 119.063 C 133.615 118.500,133.369 117.996,132.633 118.006 C 132.395 118.009,132.466 118.180,132.790 118.386 M116.500 120.276 C 116.885 120.376,117.515 120.376,117.900 120.276 C 118.285 120.175,117.970 120.093,117.200 120.093 C 116.430 120.093,116.115 120.175,116.500 120.276 M124.900 120.276 C 125.285 120.376,125.915 120.376,126.300 120.276 C 126.685 120.175,126.370 120.093,125.600 120.093 C 124.830 120.093,124.515 120.175,124.900 120.276 M119.900 120.689 C 120.615 120.778,121.785 120.778,122.500 120.689 C 123.215 120.601,122.630 120.528,121.200 120.528 C 119.770 120.528,119.185 120.601,119.900 120.689 M80.501 122.200 C 80.505 123.080,80.587 123.393,80.683 122.895 C 80.779 122.398,80.775 121.678,80.675 121.295 C 80.575 120.913,80.496 121.320,80.501 122.200 M86.200 141.200 C 87.059 142.080,87.837 142.800,87.928 142.800 C 88.265 142.800,85.386 139.666,85.019 139.634 C 84.809 139.615,85.341 140.320,86.200 141.200 M49.802 143.997 C 49.667 144.215,49.760 144.710,50.009 145.097 C 50.424 145.743,50.441 145.738,50.217 145.032 C 50.079 144.597,50.196 144.123,50.486 143.938 C 50.852 143.706,50.863 143.610,50.524 143.606 C 50.262 143.603,49.937 143.779,49.802 143.997 M93.148 145.159 C 93.590 145.440,93.552 145.590,92.948 145.941 C 92.537 146.180,92.403 146.381,92.651 146.388 C 92.899 146.395,93.303 146.158,93.548 145.863 C 94.015 145.300,93.769 144.796,93.033 144.806 C 92.795 144.809,92.847 144.968,93.148 145.159 M81.600 149.200 C 80.216 149.491,80.214 149.495,81.400 149.541 C 82.060 149.567,82.870 149.413,83.200 149.200 C 83.866 148.770,83.645 148.770,81.600 149.200 M68.900 149.876 C 69.285 149.976,69.915 149.976,70.300 149.876 C 70.685 149.775,70.370 149.693,69.600 149.693 C 68.830 149.693,68.515 149.775,68.900 149.876 M77.700 149.876 C 78.085 149.976,78.715 149.976,79.100 149.876 C 79.485 149.775,79.170 149.693,78.400 149.693 C 77.630 149.693,77.315 149.775,77.700 149.876 M144.800 150.018 C 144.362 150.315,144.524 150.352,145.400 150.156 C 146.871 149.827,147.190 149.598,146.167 149.606 C 145.745 149.609,145.130 149.795,144.800 150.018 M234.000 150.018 C 233.562 150.315,233.724 150.352,234.600 150.156 C 236.071 149.827,236.390 149.598,235.367 149.606 C 234.945 149.609,234.330 149.795,234.000 150.018 M244.833 149.744 C 244.925 149.823,245.540 150.008,246.200 150.156 C 247.076 150.352,247.238 150.315,246.800 150.018 C 246.260 149.653,244.432 149.398,244.833 149.744 M223.387 156.500 L 221.000 159.000 223.500 156.613 C 224.875 155.299,226.000 154.174,226.000 154.113 C 226.000 153.817,225.605 154.178,223.387 156.500 M168.200 156.400 C 169.283 157.500,170.260 158.400,170.370 158.400 C 170.480 158.400,169.683 157.500,168.600 156.400 C 167.517 155.300,166.540 154.400,166.430 154.400 C 166.320 154.400,167.117 155.300,168.200 156.400 M257.000 156.400 C 258.083 157.500,259.060 158.400,259.170 158.400 C 259.280 158.400,258.483 157.500,257.400 156.400 C 256.317 155.300,255.340 154.400,255.230 154.400 C 255.120 154.400,255.917 155.300,257.000 156.400 M320.400 155.400 C 319.850 155.714,319.580 155.972,319.800 155.972 C 320.020 155.972,320.650 155.714,321.200 155.400 C 321.750 155.086,322.020 154.828,321.800 154.828 C 321.580 154.828,320.950 155.086,320.400 155.400 M286.954 159.777 C 286.832 160.094,286.803 160.679,286.889 161.077 C 286.987 161.528,287.124 161.312,287.254 160.500 C 287.471 159.138,287.330 158.796,286.954 159.777 M292.300 164.282 C 292.795 164.378,293.605 164.378,294.100 164.282 C 294.595 164.187,294.190 164.109,293.200 164.109 C 292.210 164.109,291.805 164.187,292.300 164.282 M174.600 169.398 C 174.600 171.005,174.735 172.238,174.900 172.137 C 175.286 171.900,175.281 167.547,174.894 166.937 C 174.732 166.682,174.600 167.790,174.600 169.398 M243.500 168.689 C 244.215 168.778,245.385 168.778,246.100 168.689 C 246.815 168.601,246.230 168.528,244.800 168.528 C 243.370 168.528,242.785 168.601,243.500 168.689 M248.100 169.076 C 248.485 169.176,249.115 169.176,249.500 169.076 C 249.885 168.975,249.570 168.893,248.800 168.893 C 248.030 168.893,247.715 168.975,248.100 169.076 M217.600 173.159 C 217.600 173.531,219.954 175.799,220.103 175.571 C 220.164 175.477,219.626 174.830,218.907 174.134 C 218.188 173.438,217.600 172.999,217.600 173.159 M183.287 177.100 C 182.330 178.035,182.314 178.081,183.181 177.406 C 184.888 176.076,184.969 176.000,184.686 176.000 C 184.536 176.000,183.906 176.495,183.287 177.100 M309.789 179.300 L 307.000 182.200 309.900 179.411 C 311.495 177.877,312.800 176.572,312.800 176.511 C 312.800 176.217,312.380 176.606,309.789 179.300 M181.309 181.200 C 181.309 182.190,181.387 182.595,181.482 182.100 C 181.578 181.605,181.578 180.795,181.482 180.300 C 181.387 179.805,181.309 180.210,181.309 181.200 M72.800 181.464 C 72.800 181.682,73.295 182.297,73.900 182.830 L 75.000 183.800 74.000 182.600 C 73.450 181.940,72.955 181.325,72.900 181.233 C 72.845 181.142,72.800 181.245,72.800 181.464 M79.800 189.200 C 81.992 191.400,83.875 193.200,83.985 193.200 C 84.095 193.200,82.392 191.400,80.200 189.200 C 78.008 187.000,76.125 185.200,76.015 185.200 C 75.905 185.200,77.608 187.000,79.800 189.200 M321.505 185.883 C 322.002 185.979,322.722 185.975,323.105 185.875 C 323.487 185.775,323.080 185.696,322.200 185.701 C 321.320 185.705,321.007 185.787,321.505 185.883 M308.000 189.200 C 307.176 189.464,307.141 189.526,307.800 189.554 C 308.240 189.573,308.870 189.413,309.200 189.200 C 309.901 188.747,309.414 188.747,308.000 189.200 M294.915 190.696 C 296.188 190.776,298.168 190.775,299.315 190.694 C 300.462 190.614,299.420 190.549,297.000 190.550 C 294.580 190.551,293.642 190.616,294.915 190.696 M86.400 195.400 C 87.146 196.170,87.847 196.800,87.957 196.800 C 88.067 196.800,87.546 196.170,86.800 195.400 C 86.054 194.630,85.353 194.000,85.243 194.000 C 85.133 194.000,85.654 194.630,86.400 195.400 M179.023 195.963 C 178.900 196.162,179.160 196.231,179.602 196.115 C 180.043 196.000,180.718 196.152,181.102 196.453 C 181.734 196.948,181.748 196.934,181.251 196.300 C 180.666 195.554,179.395 195.361,179.023 195.963 M198.101 197.400 C 198.105 198.280,198.187 198.593,198.283 198.095 C 198.379 197.598,198.375 196.878,198.275 196.495 C 198.175 196.113,198.096 196.520,198.101 197.400 M88.435 197.300 C 88.528 197.355,89.233 197.940,90.002 198.600 L 91.400 199.800 90.225 198.500 C 89.579 197.785,88.874 197.200,88.658 197.200 C 88.443 197.200,88.343 197.245,88.435 197.300 M195.759 204.100 C 195.601 204.375,195.623 204.462,195.808 204.294 C 195.993 204.126,196.697 204.486,197.372 205.094 L 198.600 206.200 197.425 204.900 C 196.079 203.411,196.139 203.440,195.759 204.100 M186.900 204.276 C 187.285 204.376,187.915 204.376,188.300 204.276 C 188.685 204.175,188.370 204.093,187.600 204.093 C 186.830 204.093,186.515 204.175,186.900 204.276 M189.600 207.600 C 188.776 207.864,188.741 207.926,189.400 207.954 C 189.840 207.973,190.470 207.813,190.800 207.600 C 191.501 207.147,191.014 207.147,189.600 207.600 M92.432 215.100 C 92.452 215.545,92.539 215.612,92.670 215.283 C 92.840 214.861,92.999 214.861,93.539 215.283 C 94.130 215.745,94.142 215.725,93.651 215.100 C 93.349 214.715,92.944 214.400,92.751 214.400 C 92.558 214.400,92.414 214.715,92.432 215.100 M355.656 222.000 C 355.656 222.330,355.811 222.960,356.000 223.400 C 356.217 223.904,356.344 223.978,356.344 223.600 C 356.344 223.270,356.189 222.640,356.000 222.200 C 355.783 221.696,355.656 221.622,355.656 222.000 M260.100 224.812 C 258.761 225.351,259.011 225.624,260.400 225.140 C 261.060 224.910,261.600 224.649,261.600 224.561 C 261.600 224.324,261.113 224.405,260.100 224.812 M91.361 233.200 C 91.361 236.610,91.422 238.005,91.497 236.300 C 91.572 234.595,91.572 231.805,91.497 230.100 C 91.422 228.395,91.361 229.790,91.361 233.200 M356.940 232.000 C 356.940 233.870,357.009 234.635,357.093 233.700 C 357.177 232.765,357.177 231.235,357.093 230.300 C 357.009 229.365,356.940 230.130,356.940 232.000 M305.758 234.600 C 305.758 237.680,305.821 238.887,305.897 237.282 C 305.973 235.678,305.973 233.158,305.896 231.682 C 305.819 230.207,305.757 231.520,305.758 234.600 M243.600 230.018 C 243.162 230.315,243.324 230.352,244.200 230.156 C 245.671 229.827,245.990 229.598,244.967 229.606 C 244.545 229.609,243.930 229.795,243.600 230.018 M331.328 232.400 C 331.328 233.830,331.401 234.415,331.489 233.700 C 331.578 232.985,331.578 231.815,331.489 231.100 C 331.401 230.385,331.328 230.970,331.328 232.400 M238.400 231.218 C 237.962 231.515,238.124 231.552,239.000 231.356 C 240.471 231.027,240.790 230.798,239.767 230.806 C 239.345 230.809,238.730 230.995,238.400 231.218 M160.800 232.400 C 162.168 232.838,163.219 232.838,162.200 232.400 C 161.760 232.211,161.040 232.062,160.600 232.068 C 159.957 232.077,159.996 232.143,160.800 232.400 M232.000 232.406 C 231.578 232.682,231.815 232.723,232.800 232.542 C 234.525 232.225,234.851 231.998,233.567 232.006 C 233.035 232.009,232.330 232.189,232.000 232.406 M167.633 233.343 C 167.725 233.421,168.430 233.601,169.200 233.742 C 170.185 233.923,170.422 233.882,170.000 233.606 C 169.458 233.250,167.237 233.003,167.633 233.343 M224.200 233.619 C 223.642 233.871,223.885 233.907,225.000 233.738 C 225.880 233.604,226.675 233.428,226.767 233.347 C 227.110 233.044,224.968 233.271,224.200 233.619 M178.300 234.682 C 178.795 234.778,179.605 234.778,180.100 234.682 C 180.595 234.587,180.190 234.509,179.200 234.509 C 178.210 234.509,177.805 234.587,178.300 234.682 M213.500 234.682 C 213.995 234.778,214.805 234.778,215.300 234.682 C 215.795 234.587,215.390 234.509,214.400 234.509 C 213.410 234.509,213.005 234.587,213.500 234.682 M210.305 235.083 C 210.802 235.179,211.522 235.175,211.905 235.075 C 212.287 234.975,211.880 234.896,211.000 234.901 C 210.120 234.905,209.807 234.987,210.305 235.083 M194.700 235.495 C 195.855 235.576,197.745 235.576,198.900 235.495 C 200.055 235.414,199.110 235.348,196.800 235.348 C 194.490 235.348,193.545 235.414,194.700 235.495 M152.200 241.600 C 152.640 241.789,153.270 241.944,153.600 241.944 C 153.978 241.944,153.904 241.817,153.400 241.600 C 152.960 241.411,152.330 241.256,152.000 241.256 C 151.622 241.256,151.696 241.383,152.200 241.600 M177.505 245.483 C 178.002 245.579,178.722 245.575,179.105 245.475 C 179.487 245.375,179.080 245.296,178.200 245.301 C 177.320 245.305,177.007 245.387,177.505 245.483 M215.105 245.483 C 215.602 245.579,216.322 245.575,216.705 245.475 C 217.087 245.375,216.680 245.296,215.800 245.301 C 214.920 245.305,214.607 245.387,215.105 245.483 M184.905 245.887 C 185.514 245.979,186.414 245.977,186.905 245.882 C 187.397 245.787,186.900 245.711,185.800 245.714 C 184.700 245.717,184.297 245.795,184.905 245.887 M205.907 245.890 C 206.626 245.979,207.706 245.977,208.307 245.886 C 208.908 245.795,208.320 245.722,207.000 245.724 C 205.680 245.726,205.188 245.801,205.907 245.890 M304.893 247.600 C 304.893 248.370,304.975 248.685,305.076 248.300 C 305.176 247.915,305.176 247.285,305.076 246.900 C 304.975 246.515,304.893 246.830,304.893 247.600 M92.493 250.800 C 92.493 251.570,92.575 251.885,92.676 251.500 C 92.776 251.115,92.776 250.485,92.676 250.100 C 92.575 249.715,92.493 250.030,92.493 250.800 M303.600 255.376 C 303.600 255.913,303.747 256.444,303.928 256.555 C 304.108 256.667,304.177 256.227,304.082 255.579 C 303.872 254.149,303.600 254.035,303.600 255.376 M93.444 257.000 C 93.773 258.471,94.002 258.790,93.994 257.767 C 93.991 257.345,93.805 256.730,93.582 256.400 C 93.285 255.962,93.248 256.124,93.444 257.000 M307.700 256.276 C 308.085 256.376,308.715 256.376,309.100 256.276 C 309.485 256.175,309.170 256.093,308.400 256.093 C 307.630 256.093,307.315 256.175,307.700 256.276 M94.644 262.600 C 94.973 264.071,95.202 264.390,95.194 263.367 C 95.191 262.945,95.005 262.330,94.782 262.000 C 94.485 261.562,94.448 261.724,94.644 262.600 M340.175 268.500 L 339.000 269.800 340.300 268.625 C 341.015 267.979,341.600 267.394,341.600 267.325 C 341.600 267.016,341.270 267.288,340.175 268.500 M307.700 281.476 C 308.085 281.576,308.715 281.576,309.100 281.476 C 309.485 281.375,309.170 281.293,308.400 281.293 C 307.630 281.293,307.315 281.375,307.700 281.476 M123.800 314.800 C 125.992 317.000,127.875 318.800,127.985 318.800 C 128.095 318.800,126.392 317.000,124.200 314.800 C 122.008 312.600,120.125 310.800,120.015 310.800 C 119.905 310.800,121.608 312.600,123.800 314.800 M272.975 314.900 L 271.800 316.200 273.100 315.025 C 273.815 314.379,274.400 313.794,274.400 313.725 C 274.400 313.416,274.070 313.688,272.975 314.900 M174.833 342.543 C 174.925 342.621,175.630 342.801,176.400 342.942 C 177.385 343.123,177.622 343.082,177.200 342.806 C 176.658 342.450,174.437 342.203,174.833 342.543 M182.100 343.876 C 182.485 343.976,183.115 343.976,183.500 343.876 C 183.885 343.775,183.570 343.693,182.800 343.693 C 182.030 343.693,181.715 343.775,182.100 343.876 M212.900 343.876 C 213.285 343.976,213.915 343.976,214.300 343.876 C 214.685 343.775,214.370 343.693,213.600 343.693 C 212.830 343.693,212.515 343.775,212.900 343.876 M191.507 344.690 C 192.226 344.779,193.306 344.777,193.907 344.686 C 194.508 344.595,193.920 344.522,192.600 344.524 C 191.280 344.526,190.788 344.601,191.507 344.690 M202.707 344.690 C 203.426 344.779,204.506 344.777,205.107 344.686 C 205.708 344.595,205.120 344.522,203.800 344.524 C 202.480 344.526,201.988 344.601,202.707 344.690 " stroke="none" fill="#bba8a0" fill-rule="evenodd"></path><path id="path4" d="M160.493 63.200 C 160.493 63.970,160.575 64.285,160.676 63.900 C 160.776 63.515,160.776 62.885,160.676 62.500 C 160.575 62.115,160.493 62.430,160.493 63.200 M291.293 85.600 C 291.293 86.370,291.375 86.685,291.476 86.300 C 291.576 85.915,291.576 85.285,291.476 84.900 C 291.375 84.515,291.293 84.830,291.293 85.600 M125.600 86.125 C 125.600 86.194,126.185 86.779,126.900 87.425 L 128.200 88.600 127.025 87.300 C 125.930 86.088,125.600 85.816,125.600 86.125 M98.951 93.600 C 98.951 96.130,99.016 97.165,99.096 95.900 C 99.175 94.635,99.175 92.565,99.096 91.300 C 99.016 90.035,98.951 91.070,98.951 93.600 M291.750 93.400 C 291.751 95.820,291.816 96.758,291.896 95.485 C 291.976 94.212,291.975 92.232,291.894 91.085 C 291.814 89.938,291.749 90.980,291.750 93.400 M80.493 96.000 C 80.493 96.770,80.575 97.085,80.676 96.700 C 80.776 96.315,80.776 95.685,80.676 95.300 C 80.575 94.915,80.493 95.230,80.493 96.000 M118.705 95.083 C 119.202 95.179,119.922 95.175,120.305 95.075 C 120.687 94.975,120.280 94.896,119.400 94.901 C 118.520 94.905,118.207 94.987,118.705 95.083 M310.909 102.000 C 310.909 102.990,310.987 103.395,311.082 102.900 C 311.178 102.405,311.178 101.595,311.082 101.100 C 310.987 100.605,310.909 101.010,310.909 102.000 M79.754 109.600 C 79.754 112.350,79.818 113.475,79.896 112.100 C 79.974 110.725,79.974 108.475,79.896 107.100 C 79.818 105.725,79.754 106.850,79.754 109.600 M283.314 111.800 C 283.317 112.900,283.395 113.303,283.487 112.695 C 283.579 112.086,283.577 111.186,283.482 110.695 C 283.387 110.203,283.311 110.700,283.314 111.800 M124.000 113.400 C 124.746 114.170,125.447 114.800,125.557 114.800 C 125.667 114.800,125.146 114.170,124.400 113.400 C 123.654 112.630,122.953 112.000,122.843 112.000 C 122.733 112.000,123.254 112.630,124.000 113.400 M103.200 113.725 C 103.200 113.794,103.785 114.379,104.500 115.025 L 105.800 116.200 104.625 114.900 C 103.530 113.688,103.200 113.416,103.200 113.725 M310.893 116.400 C 310.893 117.170,310.975 117.485,311.076 117.100 C 311.176 116.715,311.176 116.085,311.076 115.700 C 310.975 115.315,310.893 115.630,310.893 116.400 M282.909 118.000 C 282.909 118.990,282.987 119.395,283.082 118.900 C 283.178 118.405,283.178 117.595,283.082 117.100 C 282.987 116.605,282.909 117.010,282.909 118.000 M119.911 120.293 C 120.851 120.378,122.291 120.377,123.111 120.291 C 123.930 120.205,123.160 120.136,121.400 120.137 C 119.640 120.139,118.970 120.209,119.911 120.293 M80.493 124.800 C 80.493 125.570,80.575 125.885,80.676 125.500 C 80.776 125.115,80.776 124.485,80.676 124.100 C 80.575 123.715,80.493 124.030,80.493 124.800 M149.891 149.489 C 150.601 149.577,151.861 149.579,152.691 149.492 C 153.521 149.405,152.940 149.333,151.400 149.331 C 149.860 149.329,149.181 149.400,149.891 149.489 M239.300 149.487 C 239.905 149.578,240.895 149.578,241.500 149.487 C 242.105 149.395,241.610 149.320,240.400 149.320 C 239.190 149.320,238.695 149.395,239.300 149.487 M72.300 149.893 C 73.235 149.977,74.765 149.977,75.700 149.893 C 76.635 149.809,75.870 149.740,74.000 149.740 C 72.130 149.740,71.365 149.809,72.300 149.893 M290.575 155.700 L 289.400 157.000 290.700 155.825 C 291.415 155.179,292.000 154.594,292.000 154.525 C 292.000 154.216,291.670 154.488,290.575 155.700 M292.307 163.890 C 293.026 163.979,294.106 163.977,294.707 163.886 C 295.308 163.795,294.720 163.722,293.400 163.724 C 292.080 163.726,291.588 163.801,292.307 163.890 M193.911 173.893 C 194.851 173.978,196.291 173.977,197.111 173.891 C 197.930 173.805,197.160 173.736,195.400 173.737 C 193.640 173.739,192.970 173.809,193.911 173.893 M310.175 179.300 L 309.000 180.600 310.300 179.425 C 311.015 178.779,311.600 178.194,311.600 178.125 C 311.600 177.816,311.270 178.088,310.175 179.300 M184.600 187.200 C 185.459 188.080,186.252 188.800,186.362 188.800 C 186.472 188.800,185.859 188.080,185.000 187.200 C 184.141 186.320,183.348 185.600,183.238 185.600 C 183.128 185.600,183.741 186.320,184.600 187.200 M206.581 188.100 L 205.000 189.800 206.700 188.219 C 208.281 186.748,208.584 186.400,208.281 186.400 C 208.216 186.400,207.451 187.165,206.581 188.100 M194.128 196.400 C 194.128 197.830,194.201 198.415,194.289 197.700 C 194.378 196.985,194.378 195.815,194.289 195.100 C 194.201 194.385,194.128 194.970,194.128 196.400 M296.300 206.282 C 296.795 206.378,297.605 206.378,298.100 206.282 C 298.595 206.187,298.190 206.109,297.200 206.109 C 296.210 206.109,295.805 206.187,296.300 206.282 M203.500 207.882 C 203.995 207.978,204.805 207.978,205.300 207.882 C 205.795 207.787,205.390 207.709,204.400 207.709 C 203.410 207.709,203.005 207.787,203.500 207.882 M305.505 209.083 C 306.002 209.179,306.722 209.175,307.105 209.075 C 307.487 208.975,307.080 208.896,306.200 208.901 C 305.320 208.905,305.007 208.987,305.505 209.083 M309.300 209.076 C 309.685 209.176,310.315 209.176,310.700 209.076 C 311.085 208.975,310.770 208.893,310.000 208.893 C 309.230 208.893,308.915 208.975,309.300 209.076 M91.324 225.000 C 91.326 226.320,91.401 226.812,91.490 226.093 C 91.579 225.374,91.577 224.294,91.486 223.693 C 91.395 223.092,91.322 223.680,91.324 225.000 M356.893 227.600 C 356.893 228.370,356.975 228.685,357.076 228.300 C 357.176 227.915,357.176 227.285,357.076 226.900 C 356.975 226.515,356.893 226.830,356.893 227.600 M305.693 228.000 C 305.693 228.770,305.775 229.085,305.876 228.700 C 305.976 228.315,305.976 227.685,305.876 227.300 C 305.775 226.915,305.693 227.230,305.693 228.000 M306.128 234.800 C 306.128 236.230,306.201 236.815,306.289 236.100 C 306.378 235.385,306.378 234.215,306.289 233.500 C 306.201 232.785,306.128 233.370,306.128 234.800 M175.505 234.683 C 176.002 234.779,176.722 234.775,177.105 234.675 C 177.487 234.575,177.080 234.496,176.200 234.501 C 175.320 234.505,175.007 234.587,175.505 234.683 M216.700 234.682 C 217.195 234.778,218.005 234.778,218.500 234.682 C 218.995 234.587,218.590 234.509,217.600 234.509 C 216.610 234.509,216.205 234.587,216.700 234.682 M188.691 235.489 C 189.401 235.577,190.661 235.579,191.491 235.492 C 192.321 235.405,191.740 235.333,190.200 235.331 C 188.660 235.329,187.981 235.400,188.691 235.489 M201.891 235.489 C 202.601 235.577,203.861 235.579,204.691 235.492 C 205.521 235.405,204.940 235.333,203.400 235.331 C 201.860 235.329,201.181 235.400,201.891 235.489 M356.893 236.400 C 356.893 237.170,356.975 237.485,357.076 237.100 C 357.176 236.715,357.176 236.085,357.076 235.700 C 356.975 235.315,356.893 235.630,356.893 236.400 M91.320 241.200 C 91.320 242.410,91.395 242.905,91.487 242.300 C 91.578 241.695,91.578 240.705,91.487 240.100 C 91.395 239.495,91.320 239.990,91.320 241.200 M305.693 241.200 C 305.693 241.970,305.775 242.285,305.876 241.900 C 305.976 241.515,305.976 240.885,305.876 240.500 C 305.775 240.115,305.693 240.430,305.693 241.200 M180.500 245.487 C 181.105 245.578,182.095 245.578,182.700 245.487 C 183.305 245.395,182.810 245.320,181.600 245.320 C 180.390 245.320,179.895 245.395,180.500 245.487 M211.107 245.490 C 211.826 245.579,212.906 245.577,213.507 245.486 C 214.108 245.395,213.520 245.322,212.200 245.324 C 210.880 245.326,210.388 245.401,211.107 245.490 M191.678 245.898 C 194.031 245.969,197.991 245.969,200.478 245.899 C 202.965 245.829,201.040 245.771,196.200 245.770 C 191.360 245.770,189.325 245.828,191.678 245.898 M304.700 256.282 C 305.195 256.378,306.005 256.378,306.500 256.282 C 306.995 256.187,306.590 256.109,305.600 256.109 C 304.610 256.109,304.205 256.187,304.700 256.282 M342.587 266.500 L 340.200 269.000 342.700 266.613 C 344.075 265.299,345.200 264.174,345.200 264.113 C 345.200 263.817,344.805 264.178,342.587 266.500 M302.291 281.889 C 303.001 281.977,304.261 281.979,305.091 281.892 C 305.921 281.805,305.340 281.733,303.800 281.731 C 302.260 281.729,301.581 281.800,302.291 281.889 M117.600 308.525 C 117.600 308.594,118.185 309.179,118.900 309.825 L 120.200 311.000 119.025 309.700 C 117.930 308.488,117.600 308.216,117.600 308.525 M124.200 315.600 C 125.283 316.700,126.260 317.600,126.370 317.600 C 126.480 317.600,125.683 316.700,124.600 315.600 C 123.517 314.500,122.540 313.600,122.430 313.600 C 122.320 313.600,123.117 314.500,124.200 315.600 M188.500 344.676 C 188.885 344.776,189.515 344.776,189.900 344.676 C 190.285 344.575,189.970 344.493,189.200 344.493 C 188.430 344.493,188.115 344.575,188.500 344.676 M206.500 344.676 C 206.885 344.776,207.515 344.776,207.900 344.676 C 208.285 344.575,207.970 344.493,207.200 344.493 C 206.430 344.493,206.115 344.575,206.500 344.676 M195.516 345.097 C 196.899 345.175,199.059 345.174,200.316 345.095 C 201.572 345.016,200.440 344.952,197.800 344.953 C 195.160 344.953,194.132 345.018,195.516 345.097 " stroke="none" fill="#a38c7d" fill-rule="evenodd"></path></g></svg>